<svg width="256" height="256" viewBox="0 0 256 256" fill="none" xmlns="http://www.w3.org/2000/svg">
<rect width="256" height="256" rx="10" fill="#262626"/>
<g style="mix-blend-mode:exclusion">
<path d="M90.4141 154H107.816C111.66 154 114.906 153.156 117.555 151.469C120.227 149.898 122.312 147.906 123.812 145.492C124.375 144.578 124.855 143.699 125.254 142.855C125.629 141.988 125.91 141.004 126.098 139.902C126.496 137.723 126.695 133.879 126.695 128.371C126.695 123.191 126.566 119.547 126.309 117.438C125.98 115.328 125.195 113.312 123.953 111.391C120.484 105.672 115.281 102.789 108.344 102.742H90.4141V154ZM98.1836 110.09H107.465C111.402 109.996 114.449 111.438 116.605 114.414C117.66 115.609 118.328 117.168 118.609 119.09C118.82 121.012 118.926 124.199 118.926 128.652C118.926 133.223 118.82 136.34 118.609 138.004C118.375 139.691 117.824 141.086 116.957 142.188C114.988 145.164 111.824 146.652 107.465 146.652H98.1836V110.09ZM135.766 154H168.496V146.652H143.535V131.605H164.84V124.715H143.535V110.09H168.496V102.742H135.766V154Z" fill="url(#paint0_linear)"/>
</g>
<defs>
<linearGradient id="paint0_linear" x1="128" y1="86" x2="229.5" y2="86" gradientUnits="userSpaceOnUse">
<stop stop-color="#DEDEDE"/>
<stop offset="1" stop-color="#EDEDED" stop-opacity="0"/>
</linearGradient>
</defs>
</svg>
